<svg width="512" height="504" viewBox="0 0 512 504" fill="none" xmlns="http://www.w3.org/2000/svg">
<path d="M491.899 254.999C500.346 256.662 505.847 264.849 504.193 273.286L498.031 304.669C496.328 313.356 487.71 318.927 479.013 316.793C470.867 314.799 465.927 306.472 467.54 298.246L467.71 297.404L427.089 299.258C425.866 299.308 424.804 300.119 424.424 301.292C420.456 313.276 415.235 324.699 408.912 335.38C408.271 336.462 408.371 337.835 409.183 338.797L427.149 360.14C430.716 356.743 435.375 354.979 440.085 354.979C444.053 354.979 448.061 356.232 451.458 358.837C459.684 365.13 461.247 376.903 454.955 385.14L449.744 391.943C443.632 399.939 432.239 402.084 423.943 396.362C416.798 391.442 414.213 382.595 416.798 374.909L390.916 363.536C389.744 363.025 388.391 363.326 387.54 364.268C375.556 377.424 361.608 388.747 346.157 397.785C345.095 398.406 344.523 399.609 344.724 400.821L351.347 441.222L357.079 438.928C365.305 435.641 374.664 439.849 377.6 448.316C380.345 456.242 376.037 464.91 368.251 468.016L338.962 479.739C330.746 483.026 321.387 478.818 318.451 470.351C315.706 462.425 320.014 453.757 327.8 450.641L328.591 450.33L304.964 417.224C304.253 416.222 303 415.781 301.808 416.092C287.69 419.749 272.88 421.713 257.609 421.713C245.525 421.713 233.741 420.481 222.349 418.156C221.146 417.915 219.914 418.426 219.252 419.459L195.615 456.543L196.447 456.844C204.142 459.649 208.912 466.914 208.912 474.649C208.912 476.814 208.541 479.008 207.759 481.152C207.759 492.244 199.232 498.216 188.811 494.409L159.763 483.818C150.044 480.28 144.974 469.609 148.33 459.86C151.777 449.809 163.23 444.739 173.21 448.377L173.881 448.617L178.691 405.16C178.831 403.937 178.19 402.775 177.098 402.204C158.701 392.705 142.198 380.05 128.3 364.949C127.458 364.038 126.146 363.737 125.003 364.208L89.5524 378.747C93.5605 386.242 91.306 395.741 83.9913 400.551C76.356 405.571 66.0453 403.236 60.8349 395.741L51.7567 382.665C46.6765 375.36 47.8589 365.18 54.8529 359.669C62.3079 353.797 72.9392 355.32 78.5203 362.705L103.49 334.488C104.322 333.546 104.462 332.184 103.851 331.092C93.6006 312.614 86.5865 292.093 83.5705 270.3C83.4001 269.077 82.5083 268.085 81.3159 267.815L41.416 258.596L41.3759 263.276C41.3358 267.955 39.412 272.193 36.3158 275.25C33.2296 278.316 28.9811 280.2 24.2917 280.2C14.973 280.2 7.42788 272.594 7.51806 263.276L7.77858 234.288C7.85874 224.809 15.6944 216.823 25.1634 217.073C34.3518 217.314 41.6865 224.869 41.6364 234.087L81.2458 224.798C82.4482 224.518 83.34 223.526 83.5003 222.304C86.6065 199.257 94.1917 177.624 105.344 158.305C105.965 157.223 105.855 155.87 105.043 154.908L86.1556 132.724L84.5123 134.888C79.4221 141.622 69.7027 142.794 63.1395 137.333C56.9872 132.203 56.2357 123.005 61.0654 116.622L73.6506 99.9884C76.5764 96.1307 81.0153 94.0966 85.5144 94.0966C88.6306 94.0966 91.7769 95.0786 94.4623 97.1026C100.685 101.802 102.148 110.439 98.0395 116.912L124.452 128.335C125.615 128.836 126.957 128.536 127.819 127.604C140.284 113.936 154.883 102.253 171.096 93.0645C172.158 92.4533 172.749 91.2609 172.569 90.0485L166.487 49.5573L160.715 51.7818C152.459 54.9581 143.15 50.6195 140.334 42.1224C137.689 34.1565 142.118 25.5492 149.943 22.5432L179.382 11.2205C187.649 8.04414 196.948 12.3728 199.763 20.8799C202.409 28.8358 197.99 37.443 190.154 40.4591L189.362 40.7597L212.529 74.1666C213.23 75.1787 214.473 75.6396 215.665 75.349C229.112 72.0524 243.15 70.3089 257.609 70.3089H257.629C258.892 70.3089 260.024 69.5374 260.445 68.345L268.12 46.882C259.232 44.0964 253.311 35.3288 254.443 25.7697C255.735 14.938 266.106 7.24253 276.938 8.60526L287.479 9.92791C298.221 11.2806 306.277 20.8999 305.104 31.6715C304.183 40.0583 298.15 46.5914 290.495 48.5954L293.16 71.862C293.301 73.1145 294.233 74.1366 295.475 74.4071C313.291 78.325 330.094 84.9483 345.425 93.816C346.497 94.4272 347.82 94.3371 348.772 93.5555L380.566 67.7538L375.736 63.9161C368.792 58.4051 367.81 48.1946 373.702 41.4511C379.213 35.1284 388.882 34.5673 395.445 39.7878L420.145 59.397C427.089 64.8981 428.071 75.1186 422.179 81.8621C416.668 88.1747 406.999 88.7358 400.435 83.5254L399.764 82.9943L382.74 119.958C382.219 121.071 382.459 122.383 383.321 123.265C395.305 135.54 405.506 149.568 413.502 164.919C414.083 166.031 415.295 166.662 416.538 166.492L440.676 163.115C437.129 153.215 442.39 142.243 452.51 138.926C462.159 135.76 472.56 141.121 476.107 150.64L481.668 165.55C485.175 174.979 480.967 185.77 471.748 189.778C462.911 193.616 452.941 190.149 448.191 182.313L428.161 195.901C427.109 196.612 426.638 197.915 426.979 199.137C431.097 214.067 433.301 229.778 433.301 246.011C433.301 248.726 433.241 251.422 433.111 254.097C433.061 255.33 433.752 256.462 434.874 256.953L472.43 273.356L473.612 267.294C475.275 258.847 483.462 253.346 491.899 254.999V254.999Z" fill="#C5E8FB"/>
<path d="M333.903 180.249C347.603 180.249 358.709 170.963 358.709 159.509C358.709 148.054 347.603 138.768 333.903 138.768C320.203 138.768 309.097 148.054 309.097 159.509C309.097 170.963 320.203 180.249 333.903 180.249Z" fill="white"/>
<path d="M244.386 315.782C259.36 315.782 271.499 303.643 271.499 288.668C271.499 273.694 259.36 261.555 244.386 261.555C229.411 261.555 217.272 273.694 217.272 288.668C217.272 303.643 229.411 315.782 244.386 315.782Z" fill="white"/>
<path d="M350.055 293.956C360.777 293.956 369.468 285.265 369.468 274.543C369.468 263.822 360.777 255.13 350.055 255.13C339.334 255.13 330.643 263.822 330.643 274.543C330.643 285.265 339.334 293.956 350.055 293.956Z" fill="#FAFAFA"/>
<path d="M278.36 388.155C288.784 388.155 297.234 379.705 297.234 369.281C297.234 358.857 288.784 350.407 278.36 350.407C267.936 350.407 259.486 358.857 259.486 369.281C259.486 379.705 267.936 388.155 278.36 388.155Z" fill="#FAFAFA"/>
<path d="M150.76 237.597C150.76 170.054 182.982 110.022 232.871 72.0374C227.046 72.859 221.295 73.9692 215.666 75.35C214.474 75.6406 213.231 75.1797 212.53 74.1676L189.363 40.7607L190.155 40.4601C197.991 37.444 202.41 28.8368 199.764 20.8808C196.949 12.3738 187.65 8.04512 179.383 11.2215L149.944 22.5442C142.119 25.5502 137.69 34.1574 140.335 42.1234C143.151 50.6204 152.46 54.9591 160.716 51.7828L166.488 49.5583L172.57 90.0495C172.75 91.2619 172.159 92.4543 171.097 93.0655C154.884 102.254 140.285 113.937 127.82 127.605C126.958 128.537 125.616 128.837 124.453 128.336L98.0405 116.913C102.149 110.44 100.686 101.803 94.4633 97.1036C91.7779 95.0795 88.6316 94.0976 85.5154 94.0976C81.0163 94.0976 76.5774 96.1316 73.6516 99.9894L61.0664 116.623C56.2367 123.005 56.9882 132.204 63.1405 137.334C69.7037 142.795 79.4232 141.623 84.5134 134.889L86.1566 132.725L105.044 154.909C105.856 155.871 105.966 157.224 105.345 158.306C94.1928 177.625 86.6075 199.258 83.5013 222.304C83.341 223.527 82.4492 224.519 81.2468 224.799L41.6374 234.088C41.6875 224.87 34.3528 217.314 25.1644 217.074C15.6954 216.823 7.85975 224.81 7.77959 234.289L7.51906 263.277C7.42888 272.595 14.974 280.201 24.2927 280.201C28.9821 280.201 33.2306 278.317 36.3168 275.251C39.413 272.194 41.3368 267.956 41.3769 263.277L41.417 258.597L81.3169 267.816C82.5093 268.086 83.4011 269.078 83.5715 270.301C86.5875 292.094 93.6016 312.615 103.852 331.092C104.463 332.185 104.323 333.547 103.491 334.489L78.5213 362.706C72.9402 355.321 62.3089 353.798 54.8539 359.67C47.8599 365.181 46.6775 375.361 51.7577 382.666L60.8359 395.742C66.0464 403.237 76.357 405.572 83.9923 400.552C91.307 395.742 93.5615 386.243 89.5535 378.748L125.004 364.209C126.147 363.738 127.459 364.039 128.301 364.95C142.199 380.051 158.702 392.706 177.099 402.205C178.191 402.776 178.832 403.938 178.692 405.161L173.882 448.618L173.211 448.378C163.231 444.74 151.778 449.81 148.331 459.861C144.975 469.61 150.045 480.281 159.764 483.819L188.812 494.41C199.233 498.217 207.76 492.245 207.76 481.153C208.542 479.009 208.913 476.815 208.913 474.65C208.913 466.915 204.143 459.65 196.448 456.844L195.616 456.544L219.253 419.46C219.915 418.428 221.147 417.916 222.35 418.157C233.742 420.482 245.526 421.714 257.61 421.714C259.032 421.714 260.477 421.696 261.891 421.663C195.83 386.828 150.76 317.469 150.76 237.597V237.597Z" fill="#9BDFF7"/>
<path d="M160.261 343.795C171.12 343.795 179.923 334.992 179.923 324.134C179.923 313.275 171.12 304.472 160.261 304.472C149.402 304.472 140.6 313.275 140.6 324.134C140.6 334.992 149.402 343.795 160.261 343.795Z" fill="white"/>
<path d="M226.12 214.132C248.559 196.438 254.77 166.902 239.993 148.162C225.216 129.422 195.046 128.574 172.606 146.268C150.167 163.962 143.956 193.498 158.733 212.238C173.51 230.979 203.68 231.827 226.12 214.132Z" fill="white"/>
<path d="M493.35 247.628C487.294 246.442 481.143 247.682 476.023 251.122C471.782 253.972 468.67 258.049 467.052 262.805L440.74 251.315C440.794 249.514 440.821 247.739 440.821 246.011C440.821 230.541 438.884 215.18 435.063 200.299L446.865 192.293C454.346 198.845 465.219 200.804 474.738 196.669C487.547 191.103 493.682 176.28 488.704 162.924L483.148 148.013C478.111 134.493 463.621 127.369 450.163 131.786C443.352 134.023 437.871 138.794 434.731 145.221C432.945 148.876 432.044 152.797 432.042 156.737L418.652 158.607C416.817 155.244 414.813 151.836 412.673 148.441C410.46 144.93 405.817 143.879 402.308 146.092C398.796 148.305 397.744 152.946 399.957 156.457C402.484 160.464 404.798 164.479 406.837 168.392C408.884 172.316 413.201 174.542 417.57 173.933L441.716 170.562C443.957 170.249 445.938 168.944 447.108 167.008C448.278 165.072 448.515 162.711 447.751 160.582C446.714 157.692 446.887 154.581 448.234 151.821C449.579 149.07 451.929 147.027 454.851 146.067C460.521 144.207 466.893 147.434 469.064 153.262L474.62 168.173C476.77 173.944 474.136 180.544 468.747 182.887C463.589 185.127 457.515 183.206 454.612 178.42C453.545 176.659 451.8 175.414 449.789 174.975C447.778 174.535 445.673 174.943 443.969 176.098L423.942 189.682C420.226 192.201 418.535 196.807 419.733 201.144C423.753 215.7 425.791 230.797 425.791 246.012C425.791 248.505 425.728 251.11 425.606 253.757C425.406 258.067 427.925 262.121 431.87 263.844L469.418 280.241C471.506 281.153 473.896 281.068 475.913 280.011C477.932 278.954 479.361 277.038 479.799 274.802L480.99 268.74C481.405 266.626 482.618 264.801 484.406 263.599C486.192 262.398 488.341 261.964 490.455 262.38C494.819 263.236 497.672 267.482 496.817 271.845L490.659 303.225C490.23 305.409 488.961 307.272 487.083 308.47C485.207 309.668 482.977 310.03 480.803 309.499C476.695 308.49 474.055 304.09 474.918 299.69L475.082 298.851C475.525 296.587 474.905 294.246 473.399 292.499C471.893 290.751 469.651 289.785 467.365 289.898L426.749 291.751C422.45 291.946 418.647 294.83 417.288 298.93C413.526 310.291 408.532 321.268 402.443 331.554C400.176 335.384 400.574 340.24 403.432 343.637L421.4 364.982C422.735 366.569 424.666 367.532 426.734 367.647C428.803 367.759 430.829 367.015 432.329 365.588C436.357 361.757 442.48 361.429 446.889 364.803C449.275 366.629 450.806 369.274 451.203 372.252C451.6 375.23 450.811 378.184 448.987 380.57L443.78 387.374C440.04 392.261 433.054 393.518 428.207 390.178C424.088 387.339 422.326 382.049 423.924 377.312C425.168 373.624 423.389 369.596 419.824 368.031L393.94 356.662C389.824 354.851 385.02 355.874 381.981 359.208C370.44 371.881 357.113 382.679 342.368 391.301C338.644 393.476 336.611 397.79 337.306 402.036L343.932 442.441C344.301 444.689 345.67 446.649 347.655 447.769C349.64 448.89 352.023 449.048 354.141 448.202L359.874 445.908C361.941 445.081 364.196 445.135 366.222 446.061C368.247 446.985 369.764 448.659 370.497 450.775C371.882 454.772 369.621 459.381 365.456 461.046L336.176 472.759C334.109 473.587 331.855 473.532 329.828 472.607C327.804 471.683 326.286 470.009 325.552 467.894C324.168 463.897 326.428 459.288 330.589 457.623L331.382 457.306C333.524 456.45 335.154 454.657 335.803 452.444C336.451 450.23 336.048 447.841 334.708 445.964L311.085 412.865C308.586 409.361 304.098 407.735 299.926 408.817C286.153 412.387 271.916 414.198 257.607 414.198C246.278 414.198 234.92 413.054 223.852 410.797C219.626 409.937 215.235 411.793 212.918 415.421L189.273 452.505C188.048 454.426 187.761 456.799 188.494 458.958C189.224 461.116 190.896 462.826 193.037 463.606L193.873 463.912C196.744 464.958 199.036 467.06 200.325 469.831C201.615 472.6 201.748 475.707 200.702 478.578C200.401 479.403 200.247 480.274 200.247 481.152C200.247 483.995 199.409 486.148 197.886 487.213C196.363 488.28 194.055 488.332 191.382 487.356L162.336 476.764C156.52 474.644 153.423 468.158 155.432 462.306C156.391 459.517 158.456 457.248 161.245 455.918C164.192 454.512 167.618 454.338 170.641 455.44L171.306 455.682C173.472 456.474 175.882 456.224 177.842 455.008C179.803 453.791 181.096 451.742 181.349 449.45L186.163 405.99C186.637 401.713 184.38 397.512 180.549 395.534C162.979 386.459 147.258 374.457 133.828 359.865C130.872 356.651 126.179 355.602 122.149 357.256L86.7027 371.792C84.7358 372.599 83.2027 374.2 82.4833 376.2C81.7628 378.2 81.9242 380.411 82.9252 382.286C85.1747 386.495 83.857 391.65 79.861 394.277C75.7418 396.988 69.9742 395.72 67.0083 391.451L57.9291 378.382C55.0172 374.191 55.7106 368.565 59.5072 365.573C61.4702 364.026 63.906 363.348 66.361 363.664C68.8349 363.982 71.0233 365.251 72.5253 367.237C73.884 369.035 75.9782 370.128 78.2308 370.215C80.4753 370.301 82.6546 369.373 84.1476 367.685L109.114 339.466C112.044 336.155 112.569 331.325 110.419 327.443C107.735 322.601 105.238 317.503 102.999 312.289C101.36 308.476 96.9423 306.712 93.1276 308.35C89.314 309.988 87.5504 314.407 89.1877 318.221C91.1947 322.891 93.3921 327.48 95.7388 331.9L77.857 352.114C74.9812 350.35 71.7367 349.2 68.2808 348.755C61.7808 347.92 55.3659 349.7 50.2046 353.766C40.1755 361.67 38.1474 376.249 45.5873 386.956L54.6665 400.025C62.2427 410.931 77.2488 413.984 88.1216 406.833C96.2529 401.486 100.172 392.158 98.804 383.072L124.936 372.354C138.357 386.446 153.788 398.225 170.882 407.424L167.307 439.706C163.017 439.584 158.7 440.476 154.774 442.348C148.313 445.431 143.499 450.782 141.218 457.421C136.567 470.965 143.731 485.976 157.188 490.883L186.234 501.474C189.149 502.537 192.078 503.062 194.899 503.062C199.147 503.062 203.152 501.87 206.504 499.525C211.762 495.845 214.907 489.678 215.247 482.467C217.196 476.182 216.749 469.49 213.952 463.483C212.159 459.631 209.529 456.339 206.274 453.797L223.921 426.12C249.261 430.834 275.685 430.141 300.657 424.123L317.806 448.15C311.056 454.258 308.253 463.871 311.35 472.813C313.442 478.848 317.787 483.629 323.584 486.278C329.302 488.888 335.923 489.046 341.758 486.713L371.04 475C382.739 470.32 388.74 457.517 384.7 445.854C382.609 439.819 378.264 435.037 372.466 432.389C367.71 430.216 362.323 429.74 357.287 430.989L352.643 402.673C366.709 394.123 379.546 383.732 390.869 371.729L408.356 379.409C407.867 388.392 412.033 397.285 419.679 402.555C431.212 410.502 447.042 407.844 455.717 396.509L460.924 389.704C465.189 384.13 467.029 377.228 466.103 370.27C465.177 363.312 461.598 357.131 456.023 352.865C447.89 346.642 437.272 345.804 428.53 350.112L416.999 336.412C422.388 326.923 426.934 316.928 430.546 306.622L460.022 305.278C461.484 314.263 468.031 321.838 477.221 324.095C483.424 325.619 489.799 324.566 495.171 321.138C500.468 317.756 504.199 312.282 505.409 306.116L511.566 274.737C514.017 262.241 505.846 250.08 493.35 247.628V247.628Z" fill="#0063A6"/>
<path d="M48.419 267.928L76.5875 274.434C77.2007 278.351 77.9592 282.328 78.851 286.295C79.6356 289.79 82.7378 292.166 86.1767 292.165C86.7218 292.165 87.2759 292.104 87.83 291.98C91.8791 291.07 94.4252 287.051 93.5154 283.001C92.4803 278.388 91.6396 273.768 91.0184 269.269C90.4262 264.987 87.2057 261.458 83.0063 260.489L43.1114 251.276C40.8939 250.764 38.5573 251.286 36.7687 252.695C34.9791 254.106 33.926 256.253 33.9059 258.531L33.8649 263.201C33.8178 268.43 29.5262 272.684 24.2967 272.684C21.8067 272.684 19.469 271.711 17.7165 269.942C15.963 268.172 15.0101 265.828 15.0321 263.338L15.2926 234.356C15.3157 231.698 16.4449 229.098 18.3898 227.222C20.2175 225.459 22.5271 224.513 24.967 224.585C30.0432 224.719 34.1514 228.964 34.1234 234.047C34.1103 236.349 35.1534 238.53 36.954 239.965C38.7547 241.401 41.1154 241.932 43.3539 241.405L82.9683 232.116C87.1647 231.132 90.3711 227.594 90.9492 223.312C93.8721 201.635 100.905 181.029 111.852 162.063C114.061 158.233 113.626 153.401 110.765 150.039L91.8741 127.852C90.3971 126.119 88.2258 125.145 85.9352 125.212C83.6576 125.278 81.5324 126.373 80.1576 128.19L78.5203 130.354C77.2969 131.971 75.5133 132.989 73.4973 133.22C71.4882 133.45 69.5133 132.859 67.9472 131.555C64.9872 129.089 64.5884 124.425 67.0584 121.16L79.6416 104.522C82.0845 101.293 86.6997 100.652 89.9292 103.096C92.9533 105.382 93.7278 109.678 91.6937 112.875C90.5134 114.732 90.2058 117.011 90.8521 119.115C91.4983 121.218 93.0334 122.932 95.0515 123.805L121.467 135.23C125.563 137.003 130.343 135.974 133.363 132.668C145.389 119.494 159.329 108.368 174.8 99.5986C178.548 97.4723 180.637 93.1878 180 88.9332L173.914 48.4441C173.576 46.1906 172.232 44.2126 170.263 43.0663C168.292 41.919 165.907 41.7286 163.784 42.5463L158.02 44.7637C155.941 45.5613 153.689 45.4782 151.676 44.5262C149.664 43.5753 148.169 41.8809 147.465 39.7557C146.133 35.7396 148.454 31.1635 152.642 29.5532L182.077 18.2316C184.155 17.432 186.408 17.5171 188.421 18.469C190.433 19.4199 191.929 21.1143 192.633 23.2396C193.964 27.2556 191.642 31.8318 187.455 33.443L186.659 33.7497C184.507 34.5783 182.853 36.3489 182.175 38.5533C181.498 40.7577 181.868 43.1515 183.184 45.0463L206.357 78.4512C208.807 81.9843 213.267 83.6707 217.455 82.6456C230.515 79.4472 244.024 77.825 257.623 77.825H257.627C262.061 77.825 266.036 75.0304 267.518 70.875L275.19 49.406C275.879 47.4802 275.753 45.3559 274.84 43.5262C273.928 41.6956 272.31 40.3148 270.357 39.7046C264.77 37.9571 261.215 32.4701 261.905 26.6584C262.273 23.5662 263.897 20.7516 266.478 18.7326C269.188 16.6123 272.656 15.6374 275.998 16.0592L286.535 17.3859C293.365 18.2456 298.34 24.2867 297.625 30.8518C297.073 35.92 293.525 40.0302 288.586 41.3228C284.969 42.2697 282.597 45.7327 283.023 49.4481L285.69 72.7127C286.198 77.1526 289.478 80.7819 293.856 81.7448C310.642 85.4322 326.727 91.6817 341.66 100.317C345.4 102.481 350.16 102.109 353.505 99.3932L385.298 73.5865C387.068 72.1506 388.089 69.9893 388.077 67.7107C388.064 65.4331 387.019 63.2828 385.235 61.866L380.398 58.0253C378.655 56.6415 377.583 54.6575 377.38 52.4381C377.179 50.2227 377.878 48.0744 379.352 46.388C382.135 43.2006 387.256 42.8779 390.771 45.6665L415.471 65.2768C417.214 66.6606 418.286 68.6446 418.489 70.863C418.69 73.0785 417.991 75.2268 416.517 76.9141C413.733 80.0995 408.609 80.4222 405.1 77.6366L404.433 77.1075C402.626 75.6717 400.259 75.1466 398.018 75.6817C395.773 76.2168 393.899 77.7528 392.934 79.848L375.905 116.814C374.105 120.724 374.921 125.425 377.934 128.513C379.002 129.607 380.058 130.739 381.313 132.103C384.124 135.157 388.878 135.353 391.932 132.542C394.986 129.73 395.182 124.976 392.371 121.922C391.84 121.344 391.34 120.803 390.855 120.285L403.223 93.4373C411.875 96.2669 421.611 93.9313 427.836 86.804C432.039 81.9933 434.035 75.848 433.456 69.5003C432.885 63.2417 429.736 57.4131 424.815 53.5072L400.116 33.8979C390.247 26.0632 376.155 27.2045 368.033 36.5022C363.83 41.3128 361.834 47.4581 362.413 53.8058C362.888 59.0143 365.148 63.9261 368.731 67.6786L346.46 85.7599C331.911 77.6747 316.396 71.6416 300.26 67.7929L298.608 53.377C306.247 49.1525 311.604 41.3729 312.573 32.4801C314.17 17.8127 303.333 4.35274 288.418 2.47398L277.881 1.14732C270.6 0.231483 263.068 2.32568 257.225 6.89383C251.466 11.3979 247.829 17.7877 246.986 24.8869C245.759 35.2076 250.521 45.0693 258.791 50.6465L254.439 62.8219C241.775 63.0383 229.189 64.5504 216.936 67.3269L200.118 43.0824C206.947 37.0663 209.88 27.4921 206.903 18.5101C204.892 12.447 200.611 7.60726 194.849 4.8818C189.168 2.19542 182.549 1.94792 176.684 4.20344L147.25 15.5241C135.487 20.0472 129.316 32.7687 133.201 44.4852C135.211 50.5483 139.491 55.388 145.253 58.1135C149.981 60.349 155.356 60.8971 160.412 59.7157L164.677 88.0905C149.838 96.8391 136.339 107.607 124.477 120.154L107.51 112.816C108.889 104.783 105.82 96.2669 98.9984 91.1066C94.2318 87.5014 88.349 85.9653 82.4272 86.7899C76.5073 87.6106 71.2618 90.6888 67.6576 95.4553L55.0734 112.093C47.7096 121.826 49.1395 135.447 58.3279 143.102C63.0824 147.063 69.0774 148.857 75.2137 148.152C79.0825 147.708 82.7578 146.246 85.8661 143.979L97.2499 157.35C86.7308 176.325 79.7598 196.766 76.4993 218.195L47.42 225.014C43.8899 216.204 35.3488 209.823 25.3648 209.56C18.8648 209.397 12.7054 211.82 7.95192 216.407C3.12625 221.064 0.322635 227.556 0.261513 234.219L0.000990911 263.203C-0.0571255 269.734 2.44288 275.885 7.0391 280.523C11.6353 285.161 17.7646 287.716 24.2957 287.716C36.1695 287.717 46.1645 279.184 48.419 267.928V267.928Z" fill="#0063A6"/>
<path d="M220.404 226.905C224.07 224.962 225.468 220.413 223.524 216.745C221.581 213.08 217.034 211.679 213.364 213.625C195.405 223.144 174.935 220.628 164.697 207.638C158.953 200.351 156.977 190.695 159.133 180.45C161.393 169.706 167.858 159.675 177.336 152.205C186.812 144.734 198.077 140.796 209.05 141.101C219.516 141.396 228.443 145.573 234.188 152.86C242.814 163.803 242.704 180.137 233.909 194.473C231.738 198.011 232.846 202.638 236.385 204.808C239.922 206.979 244.549 205.871 246.719 202.333C258.846 182.57 258.559 159.499 245.991 143.556C237.441 132.708 224.472 126.5 209.475 126.078C194.982 125.657 180.268 130.755 168.032 140.401C155.793 150.048 147.41 163.172 144.424 177.354C141.334 192.036 144.342 206.096 152.892 216.943C161.895 228.364 175.993 234.372 191.159 234.371C200.821 234.371 210.917 231.934 220.404 226.905V226.905Z" fill="#0063A6"/>
<path d="M366.224 159.509C366.224 143.928 351.725 131.253 333.903 131.253C316.081 131.253 301.581 143.928 301.581 159.509C301.581 175.089 316.081 187.764 333.903 187.764C351.725 187.764 366.224 175.089 366.224 159.509ZM316.612 159.509C316.612 152.216 324.369 146.283 333.904 146.283C343.438 146.283 351.195 152.216 351.195 159.509C351.195 166.801 343.438 172.734 333.904 172.734C324.369 172.734 316.612 166.801 316.612 159.509Z" fill="#0063A6"/>
<path d="M279.014 288.668C279.014 269.574 263.48 254.04 244.386 254.04C225.29 254.04 209.756 269.574 209.756 288.668C209.756 307.763 225.29 323.297 244.386 323.297C263.48 323.297 279.014 307.763 279.014 288.668ZM224.787 288.668C224.787 277.862 233.579 269.07 244.387 269.07C255.192 269.07 263.985 277.862 263.985 288.668C263.985 299.475 255.193 308.267 244.387 308.267C233.579 308.267 224.787 299.475 224.787 288.668V288.668Z" fill="#0063A6"/>
<path d="M376.984 274.543C376.984 259.694 364.904 247.614 350.055 247.614C335.208 247.614 323.128 259.694 323.128 274.543C323.128 289.392 335.208 301.472 350.055 301.472C364.904 301.471 376.984 289.392 376.984 274.543ZM338.157 274.543C338.157 267.982 343.494 262.644 350.054 262.644C356.616 262.644 361.953 267.982 361.953 274.543C361.953 281.104 356.616 286.442 350.054 286.442C343.495 286.441 338.157 281.104 338.157 274.543Z" fill="#0063A6"/>
<path d="M278.36 395.67C292.91 395.67 304.749 383.832 304.749 369.281C304.749 354.731 292.911 342.892 278.36 342.892C263.809 342.892 251.97 354.73 251.97 369.281C251.97 383.832 263.808 395.67 278.36 395.67ZM278.36 357.922C284.623 357.922 289.719 363.017 289.719 369.281C289.719 375.545 284.623 380.64 278.36 380.64C272.096 380.64 267 375.545 267 369.281C267 363.017 272.096 357.922 278.36 357.922Z" fill="#0063A6"/>
<path d="M160.261 351.31C175.246 351.31 187.438 339.119 187.438 324.134C187.438 309.149 175.246 296.957 160.261 296.957C145.276 296.957 133.085 309.149 133.085 324.134C133.085 339.119 145.276 351.31 160.261 351.31ZM160.261 311.987C166.96 311.987 172.407 317.436 172.407 324.134C172.407 330.831 166.959 336.28 160.261 336.28C153.564 336.28 148.115 330.831 148.115 324.134C148.115 317.436 153.564 311.987 160.261 311.987Z" fill="#0063A6"/>
<path d="M313.291 230.082C313.291 225.932 309.927 222.567 305.776 222.567H299.132C294.981 222.567 291.617 225.932 291.617 230.082C291.617 234.232 294.981 237.597 299.132 237.597H305.776C309.927 237.597 313.291 234.232 313.291 230.082Z" fill="#0063A6"/>
<path d="M210.447 368.96H217.272C221.424 368.96 224.787 365.596 224.787 361.445C224.787 357.295 221.424 353.93 217.272 353.93H210.447C206.295 353.93 202.932 357.295 202.932 361.445C202.932 365.596 206.296 368.96 210.447 368.96Z" fill="#0063A6"/>
<path d="M147.175 259.519C151.326 259.519 154.69 256.154 154.69 252.004C154.69 247.854 151.326 244.489 147.175 244.489H140.6C136.448 244.489 133.085 247.854 133.085 252.004C133.085 256.154 136.448 259.519 140.6 259.519H147.175Z" fill="#0063A6"/>
<path d="M280.649 128.039C284.801 128.039 288.164 124.674 288.164 120.524C288.164 116.373 284.801 113.008 280.649 113.008H271.499C267.348 113.008 263.984 116.373 263.984 120.524C263.984 124.674 267.348 128.039 271.499 128.039H280.649Z" fill="#0063A6"/>
<path d="M330.642 329.465C326.49 329.465 323.127 332.83 323.127 336.98C323.127 341.131 326.49 344.495 330.642 344.495H340.746C344.897 344.495 348.261 341.131 348.261 336.98C348.261 332.83 344.897 329.465 340.746 329.465H330.642Z" fill="#0063A6"/>
</svg>
